name Walk9.mot
datacolumns 19
datarows 12
range 1.82500000 1.88000000
endheader

                time	   L_ground_force_vx	   L_ground_force_vy	   L_ground_force_vz	   L_ground_force_px	   L_ground_force_py	   L_ground_force_pz	   R_ground_force_vx	   R_ground_force_vy	   R_ground_force_vz	   R_ground_force_px	   R_ground_force_py	   R_ground_force_pz	   L_ground_torque_x	   L_ground_torque_y	   L_ground_torque_z	   R_ground_torque_x	   R_ground_torque_y	   R_ground_torque_z	
          1.82500000	          0.00825550	          0.01189568	         -0.00194159	         -0.00012219	          0.00000000	         -0.00002167	        -18.08155630	        430.32617604	        -35.39886562	          0.39044262	          0.00000000	          0.07590453	          0.00000000	          0.00009606	          0.00000000	          0.00000000	          4.53244362	          0.00000000	
          1.83000000	          0.00355785	          0.00135725	         -0.00095279	         -0.00008516	          0.00000000	         -0.00001534	        -17.09322248	        426.49266993	        -34.36523444	          0.39347498	          0.00000000	          0.07583044	          0.00000000	          0.00006764	          0.00000000	          0.00000000	          4.25621324	          0.00000000	
          1.83500000	          0.00026396	         -0.00550819	         -0.00024334	         -0.00005467	          0.00000000	         -0.00001007	        -15.99746538	        423.79828701	        -33.39256271	          0.39613481	          0.00000000	          0.07572226	          0.00000000	          0.00004406	          0.00000000	          0.00000000	          3.97366489	          0.00000000	
          1.84000000	         -0.00186923	         -0.00947523	          0.00023087	         -0.00003080	          0.00000000	         -0.00000589	        -14.78682986	        422.14434669	        -32.49237002	          0.39842790	          0.00000000	          0.07558429	          0.00000000	          0.00002545	          0.00000000	          0.00000000	          3.68242218	          0.00000000	
          1.84500000	         -0.00308936	         -0.01126984	          0.00051670	         -0.00001306	          0.00000000	         -0.00000275	        -13.46255488	        421.42597770	        -31.67115758	          0.40037076	          0.00000000	          0.07542053	          0.00000000	          0.00001151	          0.00000000	          0.00000000	          3.38078613	          0.00000000	
          1.85000000	         -0.00362748	         -0.01152938	          0.00065914	         -0.00000064	          0.00000000	         -0.00000051	        -12.03278664	        421.53781916	        -30.92945488	          0.40199069	          0.00000000	          0.07523306	          0.00000000	          0.00000166	          0.00000000	          0.00000000	          3.06813630	          0.00000000	
          1.85500000	         -0.00368568	         -0.01078399	          0.00069835	          0.00000737	          0.00000000	          0.00000096	        -10.50990842	        422.38108658	        -30.25991794	          0.40332328	          0.00000000	          0.07502132	          0.00000000	         -0.00000479	          0.00000000	          0.00000000	          2.74546060	          0.00000000	
          1.86000000	         -0.00343150	         -0.00945310	          0.00066827	          0.00001192	          0.00000000	          0.00000183	         -8.90674883	        423.87291411	        -29.64993060	          0.40440702	          0.00000000	          0.07478618	          0.00000000	         -0.00000855	          0.00000000	          0.00000000	          2.41466945	          0.00000000	
          1.86500000	         -0.00299712	         -0.00785199	          0.00059612	          0.00001390	          0.00000000	          0.00000224	         -7.23293340	        425.95208733	        -29.08974197	          0.40528128	          0.00000000	          0.07453201	          0.00000000	         -0.00001028	          0.00000000	          0.00000000	          2.07710860	          0.00000000	
          1.87000000	         -0.00248152	         -0.00620424	          0.00050271	          0.00001407	          0.00000000	          0.00000233	         -5.49373614	        428.58065300	        -28.57666756	          0.40598514	          0.00000000	          0.07426497	          0.00000000	         -0.00001058	          0.00000000	          0.00000000	          1.73306193	          0.00000000	
          1.87500000	         -0.00195462	         -0.00465689	          0.00040305	          0.00001306	          0.00000000	          0.00000220	         -3.69106538	        431.74127618	        -28.11242206	          0.40655487	          0.00000000	          0.07399200	          0.00000000	         -0.00000993	          0.00000000	          0.00000000	          1.38181861	          0.00000000	
          1.88000000	         -0.00146214	         -0.00329630	          0.00030726	          0.00001139	          0.00000000	          0.00000194	         -1.82596423	        435.43047255	        -27.69872717	          0.40702072	          0.00000000	          0.07372023	          0.00000000	         -0.00000873	          0.00000000	          0.00000000	          1.02208174	          0.00000000	
